<?xml version="1.0" standalone="no"?>
<!DOCTYPE svg PUBLIC "-//W3C//DTD SVG 20010904//EN"
 "http://www.w3.org/TR/2001/REC-SVG-20010904/DTD/svg10.dtd">
<svg version="1.0" xmlns="http://www.w3.org/2000/svg"
 width="156.000000pt" height="156.000000pt" viewBox="0 0 156.000000 156.000000"
 preserveAspectRatio="xMidYMid meet">
<metadata>
Created by potrace 1.14, written by Peter Selinger 2001-2017
</metadata>
<g transform="translate(0.000000,156.000000) scale(0.100000,-0.100000)"
fill="#000000" stroke="none">
<path d="M1055 1153 c-148 -25 -193 -53 -392 -247 -95 -93 -173 -174 -173
-180 0 -8 60 -11 185 -10 212 2 203 11 95 -94 -100 -98 -138 -117 -235 -117
-90 1 -135 19 -193 76 -53 52 -75 108 -75 192 0 56 5 82 22 116 25 49 79 104
126 129 42 22 177 26 224 6 20 -9 41 -18 47 -21 15 -6 77 54 69 67 -8 13 -59
40 -105 57 -161 59 -363 -24 -447 -184 -46 -87 -56 -144 -41 -233 19 -105 87
-204 183 -265 45 -29 63 -36 130 -52 74 -17 187 9 263 61 46 31 375 356 368
364 -2 1 -85 3 -185 3 -99 1 -181 4 -181 8 0 5 40 47 89 94 75 72 98 88 145
102 209 61 397 -107 351 -315 -18 -82 -92 -167 -168 -193 -64 -22 -160 -17
-214 11 l-43 22 -35 -36 c-19 -20 -33 -39 -30 -44 9 -14 99 -58 146 -70 180
-49 386 74 444 266 20 68 14 169 -15 243 -29 74 -106 157 -175 191 -60 29
-155 57 -180 53z"/>
</g>
</svg>
