<?xml version="1.0" encoding="UTF-8" standalone="no"?>
<!DOCTYPE svg PUBLIC "-//W3C//DTD SVG 1.1//EN" "http://www.w3.org/Graphics/SVG/1.1/DTD/svg11.dtd">
<svg xmlns="http://www.w3.org/2000/svg" version="1.1" viewBox="0.00 0.00 35.00 35.00">
<path fill="#fa201f" d="
  M 5.58 14.83
  L 5.59 31.67
  Q 5.59 32.25 6.17 32.25
  L 20.42 32.25
  A 0.67 0.66 69.1 0 1 20.92 32.48
  L 21.41 33.04
  A 0.33 0.33 0.0 0 1 21.16 33.58
  L 6.54 33.57
  Q 4.25 33.57 4.25 31.29
  L 4.25 14.45
  A 1.80 1.79 0.0 0 1 6.05 12.66
  L 8.56 12.66
  A 0.62 0.62 0.0 0 0 9.19 12.00
  C 9.02 9.07 9.04 5.99 11.12 3.66
  C 14.08 0.35 19.00 -0.30 22.49 2.37
  C 25.85 4.94 25.86 7.94 25.83 11.76
  Q 25.83 12.88 26.94 12.69
  C 32.02 11.78 30.73 16.59 30.74 19.45
  Q 30.75 20.09 30.12 19.97
  L 29.86 19.91
  A 0.56 0.55 5.8 0 1 29.41 19.37
  L 29.40 14.82
  A 0.83 0.82 0.0 0 0 28.57 14.00
  L 6.42 14.00
  A 0.84 0.83 -0.0 0 0 5.58 14.83
  Z
  M 11.02 12.65
  L 23.96 12.69
  A 0.56 0.56 0.0 0 0 24.52 12.13
  L 24.53 9.38
  A 7.23 6.83 -89.8 0 0 17.73 2.13
  L 17.33 2.13
  A 7.23 6.83 -89.8 0 0 10.47 9.34
  L 10.46 12.09
  A 0.56 0.56 0.0 0 0 11.02 12.65
  Z"
/>
<path fill="#fa201f" d="
  M 19.39 22.33
  C 18.75 23.49 18.91 24.71 18.59 25.92
  A 0.92 0.91 7.3 0 1 17.70 26.60
  Q 17.23 26.59 16.82 26.37
  A 1.17 1.17 0.0 0 1 16.21 25.22
  Q 16.36 23.72 15.62 22.38
  Q 15.18 21.58 15.60 20.78
  Q 16.26 19.53 17.96 19.71
  A 1.69 1.67 75.4 0 1 19.16 20.42
  Q 19.88 21.45 19.39 22.33
  Z"
/>
<path fill="#fa201f" d="
  M 35.00 27.13
  L 35.00 29.21
  Q 33.75 33.85 29.12 35.00
  L 26.79 35.00
  Q 20.54 33.23 21.03 27.25
  Q 21.30 24.06 23.85 22.36
  C 28.46 19.27 33.63 21.72 35.00 27.13
  Z
  M 33.61 28.02
  A 5.61 5.61 0.0 0 0 28.00 22.41
  A 5.61 5.61 0.0 0 0 22.39 28.02
  A 5.61 5.61 0.0 0 0 28.00 33.63
  A 5.61 5.61 0.0 0 0 33.61 28.02
  Z"
/>
<path fill="#fa201f" d="
  M 27.73 28.71
  L 30.67 25.17
  Q 30.97 24.82 31.34 25.09
  L 31.61 25.29
  A 0.56 0.55 38.9 0 1 31.70 26.10
  L 27.76 30.65
  Q 27.37 31.11 26.89 30.73
  L 24.35 28.73
  A 0.47 0.46 -40.1 0 1 24.42 27.95
  L 24.74 27.78
  A 0.71 0.71 0.0 0 1 25.63 27.98
  Q 26.17 28.67 26.98 28.93
  A 0.71 0.70 28.5 0 0 27.73 28.71
  Z"
/>
</svg>
