<svg width="440" height="113" viewBox="0 0 440 113" fill="none" xmlns="http://www.w3.org/2000/svg">
<g clip-path="url(#clip0_490_395)">
<g clip-path="url(#clip1_490_395)">
<g clip-path="url(#clip2_490_395)">
<g clip-path="url(#clip3_490_395)">
<g clip-path="url(#clip4_490_395)">
<g clip-path="url(#clip5_490_395)">
<g clip-path="url(#clip6_490_395)">
<g clip-path="url(#clip7_490_395)">
<path d="M64.3263 59.2193H60.1849C60.0616 59.2193 60 59.1578 60 59.0348L60.074 33.6825C60.074 33.584 60.1233 33.5348 60.2219 33.5348H72.0545C72.1777 33.5348 72.2394 33.584 72.2394 33.6825V37.8525C72.2394 37.9509 72.1901 38.0001 72.0915 38.0001H64.5112V43.72H72.0915C72.1901 43.72 72.2394 43.7816 72.2394 43.9046L72.2764 48.0746C72.2764 48.173 72.2147 48.2222 72.0915 48.2222H64.5112V59.0348C64.5112 59.1578 64.4496 59.2193 64.3263 59.2193ZM79.9306 59.2193H75.7522C75.6289 59.2193 75.5673 59.1578 75.5673 59.0348L75.6043 33.6825C75.6043 33.584 75.6536 33.5348 75.7522 33.5348H79.8936C79.9922 33.5348 80.0415 33.584 80.0415 33.6825L80.0785 59.0348C80.0785 59.1578 80.0292 59.2193 79.9306 59.2193ZM95.4165 59.2193H83.473C83.3793 59.2193 83.3325 59.1578 83.3325 59.0348L83.362 33.7194C83.362 33.5963 83.4237 33.5348 83.5469 33.5348H87.6514C87.7746 33.5348 87.8363 33.5963 87.8363 33.7194L87.7993 54.6802H95.4165C95.5398 54.6802 95.6014 54.7417 95.6014 54.8647V59.0348C95.6014 59.1578 95.5398 59.2193 95.4165 59.2193ZM102.368 59.2193H98.1898C98.0666 59.2193 98.0049 59.1578 98.0049 59.0348L98.0419 33.6825C98.0419 33.584 98.0912 33.5348 98.1898 33.5348H102.331C102.43 33.5348 102.479 33.584 102.479 33.6825L102.516 59.0348C102.516 59.1578 102.467 59.2193 102.368 59.2193ZM110.096 59.2193H105.955C105.832 59.2193 105.77 59.1578 105.77 59.0348L105.844 33.6825C105.844 33.584 105.893 33.5348 105.992 33.5348H113.092C115.359 33.5348 117.152 34.2237 118.468 35.6014C119.789 36.9791 120.45 38.8489 120.45 41.2106C120.45 42.9574 120.105 44.4704 119.415 45.7497C118.724 47.029 117.825 48.0131 116.715 48.7019C115.606 49.3908 114.398 49.7352 113.092 49.7352H110.281V59.0348C110.281 59.1578 110.22 59.2193 110.096 59.2193ZM110.281 37.9632V45.27H113.092C113.88 45.27 114.563 44.8936 115.14 44.1407C115.722 43.3928 116.013 42.4161 116.013 41.2106C116.013 40.2512 115.754 39.4639 115.236 38.8489C114.719 38.2338 114.004 37.9263 113.092 37.9263L110.281 37.9632ZM127.328 59.2193H123.149C123.026 59.2193 122.964 59.1578 122.964 59.0348L123.001 33.6825C123.001 33.584 123.051 33.5348 123.149 33.5348H127.291C127.389 33.5348 127.439 33.584 127.439 33.6825L127.476 59.0348C127.476 59.1578 127.426 59.2193 127.328 59.2193ZM134.76 59.2193H131.062C130.865 59.2193 130.767 59.1332 130.767 58.961L130.73 33.8301C130.73 33.6332 130.828 33.5348 131.025 33.5348H134.353L140.602 48.0746L140.418 33.8301C140.418 33.6332 140.528 33.5348 140.75 33.5348H144.411C144.559 33.5348 144.633 33.6332 144.633 33.8301L144.67 58.9979C144.67 59.1455 144.608 59.2193 144.485 59.2193H141.231L134.834 45.639L135.093 58.9241C135.093 59.1209 134.982 59.2193 134.76 59.2193ZM154.72 59.5883C153.389 59.5883 152.176 59.2488 151.082 58.5698C149.982 57.8957 149.1 56.9977 148.434 55.8759C147.769 54.7589 147.436 53.5239 147.436 52.1708L147.473 40.4726C147.473 39.1195 147.801 37.8894 148.456 36.7823C149.107 35.6752 149.987 34.7895 151.096 34.1253C152.206 33.461 153.414 33.1289 154.72 33.1289C156.051 33.1289 157.259 33.461 158.344 34.1253C159.429 34.7895 160.299 35.6752 160.955 36.7823C161.605 37.8894 161.931 39.1195 161.931 40.4726L161.968 52.1708C161.968 53.5239 161.642 54.7589 160.991 55.8759C160.336 56.9977 159.461 57.8957 158.366 58.5698C157.267 59.2488 156.051 59.5883 154.72 59.5883ZM154.72 55.1231C155.46 55.1231 156.108 54.8205 156.665 54.2152C157.217 53.615 157.493 52.9335 157.493 52.1708L157.456 40.4726C157.456 39.6607 157.198 38.9719 156.68 38.406C156.162 37.8402 155.509 37.5573 154.72 37.5573C153.956 37.5573 153.303 37.8328 152.76 38.3839C152.218 38.9399 151.947 39.6361 151.947 40.4726V52.1708C151.947 52.9827 152.218 53.6765 152.76 54.2521C153.303 54.8328 153.956 55.1231 154.72 55.1231Z" fill="#FF1F1F"/>
<path d="M167.662 59.0347L172.247 33.6824C172.272 33.584 172.334 33.5348 172.432 33.5348H177.794C177.892 33.5348 177.954 33.584 177.979 33.6824L182.379 59.0347C182.404 59.1577 182.354 59.2192 182.231 59.2192H178.127C178.028 59.2192 177.966 59.1577 177.942 59.0347L177.535 56.3408H172.506L172.099 59.0347C172.075 59.1577 172.013 59.2192 171.914 59.2192H167.81C167.711 59.2192 167.662 59.1577 167.662 59.0347ZM174.91 42.0225L173.246 52.3922H176.795L175.279 42.0225L175.058 40.6571L174.91 42.0225ZM191.512 59.1823L184.893 59.2192C184.77 59.2192 184.708 59.1577 184.708 59.0347L184.782 33.6824C184.782 33.584 184.832 33.5348 184.93 33.5348L191.845 33.4979C193.201 33.4733 194.438 33.7931 195.558 34.4574C196.682 35.1216 197.576 36.0122 198.242 37.1291C198.908 38.251 199.24 39.4885 199.24 40.8416V51.4327C199.24 52.8596 198.895 54.1562 198.205 55.3223C197.51 56.4933 196.585 57.4233 195.432 58.1122C194.273 58.801 192.967 59.1577 191.512 59.1823ZM189.257 37.9632L189.212 54.6802H191.512C192.424 54.6802 193.193 54.3604 193.82 53.7207C194.446 53.0811 194.759 52.3184 194.759 51.4327V40.8047C194.759 40.0174 194.47 39.3335 193.894 38.7529C193.317 38.1772 192.634 37.9016 191.845 37.9263L189.257 37.9632ZM210.77 59.2192H206.296C206.197 59.2192 206.135 59.1577 206.111 59.0347L201.008 33.6824C200.983 33.584 201.033 33.5348 201.156 33.5348H205.334C205.433 33.5348 205.494 33.584 205.519 33.6824L208.551 50.584L211.509 33.6824C211.534 33.584 211.596 33.5348 211.694 33.5348H215.836C215.959 33.5348 216.008 33.584 215.984 33.6824L210.955 59.0347C210.93 59.1577 210.868 59.2192 210.77 59.2192ZM230.257 59.2192H218.313C218.215 59.2192 218.165 59.1577 218.165 59.0347L218.202 33.6824C218.202 33.584 218.252 33.5348 218.35 33.5348H230.22C230.318 33.5348 230.368 33.5963 230.368 33.7193V37.8524C230.368 37.9509 230.318 38.0001 230.22 38.0001H222.639V43.7569H230.22C230.318 43.7569 230.368 43.8061 230.368 43.9045L230.405 48.0746C230.405 48.173 230.355 48.2222 230.257 48.2222H222.639V54.6802H230.257C230.355 54.6802 230.405 54.7417 230.405 54.8647V59.0716C230.405 59.17 230.355 59.2192 230.257 59.2192ZM237.726 59.2192H234.028C233.831 59.2192 233.733 59.1331 233.733 58.9609L233.696 33.83C233.696 33.6332 233.794 33.5348 233.991 33.5348H237.319L243.568 48.0746L243.384 33.83C243.384 33.6332 243.494 33.5348 243.716 33.5348H247.377C247.525 33.5348 247.599 33.6332 247.599 33.83L247.636 58.9978C247.636 59.1454 247.574 59.2192 247.451 59.2192H244.197L237.8 45.639L238.059 58.924C238.059 59.1208 237.948 59.2192 237.726 59.2192ZM258.729 59.2192H254.551C254.452 59.2192 254.403 59.1577 254.403 59.0347V38.0001H249.596C249.472 38.0001 249.411 37.9386 249.411 37.8155L249.448 33.6824C249.448 33.584 249.497 33.5348 249.596 33.5348H263.647C263.77 33.5348 263.832 33.584 263.832 33.6824V37.8155C263.832 37.9386 263.782 38.0001 263.684 38.0001H258.84L258.877 59.0347C258.877 59.1577 258.828 59.2192 258.729 59.2192ZM272.44 59.5883C271.134 59.5883 269.926 59.2488 268.816 58.5698C267.707 57.8957 266.827 56.9928 266.176 55.8611C265.52 54.7294 265.193 53.487 265.193 52.1339L265.266 33.6824C265.266 33.584 265.316 33.5348 265.414 33.5348H269.556C269.654 33.5348 269.704 33.584 269.704 33.6824V52.1339C269.704 52.9703 269.97 53.6764 270.502 54.2521C271.03 54.8327 271.676 55.123 272.44 55.123C273.229 55.123 273.89 54.8327 274.422 54.2521C274.95 53.6764 275.213 52.9703 275.213 52.1339V33.6824C275.213 33.584 275.263 33.5348 275.361 33.5348H279.503C279.601 33.5348 279.651 33.584 279.651 33.6824L279.724 52.1339C279.724 53.5116 279.399 54.7663 278.748 55.898C278.093 57.0297 277.217 57.9276 276.123 58.5919C275.023 59.2561 273.796 59.5883 272.44 59.5883ZM286.972 59.2192H282.794C282.695 59.2192 282.646 59.1577 282.646 59.0347L282.72 33.6824C282.72 33.584 282.769 33.5348 282.868 33.5348H290.337C291.668 33.5348 292.896 33.8595 294.02 34.509C295.139 35.1635 296.031 36.0368 296.697 37.1291C297.362 38.2264 297.695 39.4639 297.695 40.8416C297.695 41.7519 297.56 42.5686 297.289 43.2919C297.017 44.0202 296.697 44.6377 296.327 45.1445C295.957 45.6463 295.625 46.0203 295.329 46.2663C296.66 47.7424 297.326 49.4769 297.326 51.4696L297.362 59.0347C297.362 59.1577 297.301 59.2192 297.178 59.2192H292.999C292.901 59.2192 292.851 59.1823 292.851 59.1085V51.4696C292.851 50.584 292.538 49.8139 291.912 49.1595C291.281 48.51 290.509 48.1853 289.597 48.1853H287.157L287.12 59.0347C287.12 59.1577 287.071 59.2192 286.972 59.2192ZM287.157 37.9632V43.7569H290.337C291.101 43.7569 291.779 43.474 292.371 42.9081C292.962 42.3423 293.258 41.6534 293.258 40.8416C293.258 40.0543 292.97 39.3778 292.393 38.8119C291.811 38.2461 291.126 37.9632 290.337 37.9632H287.157ZM312.56 59.2192H300.616C300.518 59.2192 300.469 59.1577 300.469 59.0347L300.506 33.6824C300.506 33.584 300.555 33.5348 300.653 33.5348H312.523C312.622 33.5348 312.671 33.5963 312.671 33.7193V37.8524C312.671 37.9509 312.622 38.0001 312.523 38.0001H304.943V43.7569H312.523C312.622 43.7569 312.671 43.8061 312.671 43.9045L312.708 48.0746C312.708 48.173 312.659 48.2222 312.56 48.2222H304.943V54.6802H312.56C312.659 54.6802 312.708 54.7417 312.708 54.8647V59.0716C312.708 59.17 312.659 59.2192 312.56 59.2192Z" fill="#4E55FF"/>
</g>
</g>
<g clip-path="url(#clip8_490_395)">
<g clip-path="url(#clip9_490_395)">
<path d="M135.138 76.6296H129.432V66.7568H135.232L135.03 67.8029H130.757V70.9549H134.565L134.36 72.001H130.757V75.5863H135.339L135.138 76.6296ZM137.887 76.6296H136.562L139.264 72.9311L136.786 69.4865H138.285L139.419 71.253L139.944 72.2356H140.08L140.647 71.253L141.864 69.4865H143.186L140.627 72.8704L143.41 76.6296H141.911L140.558 74.6203L139.986 73.5825H139.85L139.278 74.5955L137.887 76.6296ZM149.762 75.2965V76.0224C149.482 76.2377 149.15 76.4153 148.767 76.5551C148.381 76.695 147.961 76.7649 147.505 76.7649C147.021 76.7649 146.581 76.6802 146.186 76.511C145.792 76.3435 145.455 76.1089 145.177 75.8071C144.898 75.5072 144.684 75.1466 144.532 74.7252C144.381 74.3057 144.306 73.8466 144.306 73.3479C144.306 72.7683 144.405 72.2338 144.604 71.7443C144.802 71.2548 145.073 70.8325 145.417 70.4774C145.762 70.1223 146.168 69.8463 146.634 69.6494C147.103 69.4507 147.605 69.3513 148.142 69.3513C148.267 69.3513 148.403 69.3568 148.551 69.3679C148.697 69.3789 148.841 69.3982 148.985 69.4258C149.129 69.4534 149.268 69.4865 149.403 69.5252C149.539 69.562 149.659 69.608 149.762 69.6632L149.491 70.781L149.342 70.8473C149.253 70.781 149.151 70.7185 149.035 70.6596C148.921 70.6007 148.8 70.551 148.673 70.5105C148.543 70.4701 148.41 70.4379 148.272 70.4139C148.135 70.3882 148.001 70.3753 147.871 70.3753C147.57 70.3753 147.285 70.4351 147.016 70.5547C146.749 70.6743 146.514 70.8473 146.311 71.0736C146.108 71.2999 145.948 71.5787 145.832 71.9099C145.714 72.2393 145.655 72.6156 145.655 73.0388C145.655 73.4693 145.718 73.8484 145.843 74.1759C145.967 74.5053 146.136 74.7822 146.352 75.0067C146.568 75.2312 146.824 75.4005 147.121 75.5146C147.418 75.6287 147.74 75.6857 148.086 75.6857C148.295 75.6857 148.544 75.6599 148.836 75.6084C149.129 75.5569 149.438 75.4529 149.762 75.2965ZM151.759 76.6296V65.835H153.042V76.6296H151.759ZM155.418 74.2311V69.4865H156.701V74.0158C156.701 74.2624 156.736 74.4878 156.806 74.6921C156.876 74.8963 156.973 75.073 157.097 75.222C157.22 75.3692 157.369 75.4833 157.542 75.5642C157.715 75.6452 157.908 75.6857 158.12 75.6857C158.304 75.6857 158.485 75.6544 158.662 75.5919C158.841 75.5293 159.012 75.4474 159.176 75.3462C159.34 75.245 159.495 75.1282 159.641 74.9957C159.788 74.8632 159.925 74.7252 160.05 74.5817V69.4865H161.334V76.6296H160.335L160.117 75.4042C159.951 75.5569 159.774 75.7124 159.586 75.8706C159.396 76.0307 159.194 76.177 158.98 76.3095C158.766 76.442 158.54 76.5505 158.302 76.6352C158.063 76.7216 157.813 76.7649 157.553 76.7649C157.247 76.7649 156.964 76.7042 156.704 76.5827C156.446 76.4613 156.221 76.2892 156.029 76.0666C155.837 75.8439 155.688 75.5771 155.581 75.2662C155.472 74.9534 155.418 74.6083 155.418 74.2311ZM163.264 76.3067L163.535 75.2275L163.654 75.1475C163.825 75.2413 164.006 75.325 164.196 75.3986C164.384 75.4741 164.57 75.5366 164.755 75.5863C164.941 75.6342 165.122 75.6719 165.299 75.6995C165.476 75.7271 165.641 75.7409 165.794 75.7409C166.007 75.7409 166.2 75.7161 166.375 75.6664C166.552 75.6167 166.703 75.5468 166.826 75.4566C166.95 75.3664 167.046 75.2588 167.116 75.1337C167.187 75.0086 167.222 74.8696 167.222 74.7169C167.222 74.5237 167.167 74.3627 167.058 74.2339C166.95 74.1051 166.808 73.9947 166.632 73.9027C166.457 73.8107 166.257 73.7316 166.032 73.6653C165.807 73.5972 165.578 73.5273 165.344 73.4555C165.11 73.3838 164.88 73.3028 164.655 73.2127C164.43 73.1225 164.23 73.0093 164.055 72.8732C163.878 72.7352 163.736 72.5686 163.629 72.3736C163.52 72.1785 163.466 71.9393 163.466 71.656C163.466 71.3413 163.536 71.0442 163.676 70.7645C163.814 70.4829 164.01 70.2382 164.262 70.0303C164.515 69.8205 164.818 69.6549 165.172 69.5335C165.524 69.412 165.917 69.3513 166.35 69.3513C166.454 69.3513 166.577 69.3559 166.721 69.3651C166.865 69.3743 167.018 69.389 167.18 69.4093C167.342 69.4295 167.507 69.4562 167.675 69.4893C167.845 69.5243 168.008 69.5657 168.165 69.6135L167.896 70.6651L167.733 70.7617C167.608 70.6936 167.47 70.6347 167.318 70.5851C167.167 70.5354 167.014 70.4958 166.859 70.4664C166.704 70.4369 166.552 70.4149 166.403 70.4001C166.255 70.3836 166.125 70.3753 166.013 70.3753C165.805 70.3753 165.617 70.3983 165.449 70.4443C165.279 70.4885 165.133 70.5519 165.012 70.6347C164.89 70.7194 164.796 70.8206 164.73 70.9384C164.661 71.058 164.627 71.1941 164.627 71.3468C164.627 71.5437 164.682 71.7075 164.791 71.8381C164.897 71.9688 165.041 72.0801 165.222 72.1721C165.403 72.2641 165.606 72.3442 165.833 72.4122C166.06 72.4785 166.293 72.5475 166.533 72.6192C166.771 72.691 167.003 72.772 167.23 72.8621C167.457 72.9523 167.66 73.0673 167.841 73.2071C168.022 73.3451 168.166 73.5144 168.272 73.715C168.381 73.9156 168.436 74.1594 168.436 74.4464C168.436 74.7831 168.36 75.0932 168.209 75.3766C168.058 75.6599 167.851 75.9047 167.589 76.1107C167.326 76.3168 167.017 76.4778 166.663 76.5938C166.309 76.7078 165.93 76.7649 165.526 76.7649C165.18 76.7649 164.809 76.7244 164.414 76.6434C164.022 76.5625 163.638 76.4502 163.264 76.3067ZM170.361 76.6296V69.4865H171.641V76.6296H170.361ZM171.008 67.9381C170.895 67.9381 170.789 67.9179 170.69 67.8774C170.59 67.8369 170.504 67.7808 170.432 67.7091C170.361 67.6373 170.304 67.5527 170.264 67.4551C170.223 67.3594 170.203 67.2527 170.203 67.135C170.203 67.019 170.226 66.9086 170.272 66.8038C170.316 66.7007 170.375 66.6115 170.449 66.536C170.525 66.4587 170.613 66.3989 170.715 66.3566C170.816 66.3143 170.923 66.2931 171.035 66.2931C171.142 66.2931 171.245 66.3143 171.342 66.3566C171.438 66.3989 171.522 66.4587 171.594 66.536C171.666 66.6115 171.722 66.6998 171.763 66.801C171.803 66.9022 171.824 67.0089 171.824 67.1212C171.824 67.2426 171.801 67.3539 171.757 67.4551C171.711 67.5563 171.651 67.6419 171.577 67.7118C171.504 67.7817 171.417 67.8369 171.317 67.8774C171.22 67.9179 171.116 67.9381 171.008 67.9381ZM175.928 76.6296L173.256 69.4865H174.7L176.293 74.4326L176.591 75.6057H176.727L177.009 74.4326L178.616 69.4865H179.941L177.252 76.6296H175.928ZM186.968 75.2965V76.0224C186.797 76.1439 186.599 76.2506 186.376 76.3426C186.153 76.4346 185.923 76.5119 185.685 76.5744C185.447 76.6388 185.207 76.6867 184.966 76.718C184.724 76.7492 184.5 76.7649 184.294 76.7649C183.835 76.7649 183.398 76.6885 182.983 76.5358C182.57 76.3831 182.208 76.1586 181.896 75.8623C181.586 75.5661 181.339 75.199 181.155 74.7611C180.97 74.3213 180.878 73.8162 180.878 73.2458C180.878 72.6588 180.976 72.1243 181.171 71.6422C181.367 71.1619 181.629 70.7525 181.957 70.4139C182.287 70.0735 182.667 69.8113 183.096 69.6273C183.526 69.4433 183.977 69.3513 184.449 69.3513C184.832 69.3513 185.189 69.4157 185.519 69.5445C185.851 69.6715 186.139 69.8638 186.385 70.1214C186.63 70.3771 186.821 70.6973 186.96 71.0819C187.1 71.4646 187.17 71.9127 187.17 72.426C187.17 72.5291 187.165 72.6524 187.156 72.7959C187.147 72.9394 187.129 73.0894 187.104 73.2458H182.214C182.214 73.6322 182.283 73.9772 182.421 74.2808C182.558 74.5844 182.751 74.8402 183.002 75.0481C183.251 75.2579 183.549 75.417 183.895 75.5256C184.242 75.6323 184.625 75.6857 185.043 75.6857C185.146 75.6857 185.273 75.6811 185.422 75.6719C185.57 75.6627 185.729 75.6452 185.901 75.6195C186.072 75.5919 186.25 75.5523 186.434 75.5008C186.619 75.4492 186.797 75.3812 186.968 75.2965ZM182.214 72.4509H185.956C185.956 72.1141 185.908 71.817 185.812 71.5594C185.718 71.2999 185.59 71.0828 185.428 70.908C185.265 70.7332 185.077 70.6007 184.863 70.5105C184.65 70.4204 184.422 70.3753 184.18 70.3753C183.909 70.3753 183.655 70.4305 183.417 70.5409C183.177 70.6513 182.969 70.8013 182.792 70.9908C182.613 71.1785 182.472 71.3984 182.369 71.6505C182.266 71.9025 182.214 72.1693 182.214 72.4509ZM193.503 71.5097V75.418C193.629 75.4805 193.762 75.532 193.904 75.5725C194.046 75.613 194.188 75.6452 194.33 75.6691C194.472 75.6949 194.608 75.7133 194.737 75.7243C194.868 75.7354 194.981 75.7409 195.077 75.7409C195.446 75.7409 195.784 75.671 196.092 75.5311C196.4 75.3913 196.664 75.1981 196.886 74.9515C197.105 74.7049 197.276 74.4142 197.397 74.0793C197.519 73.7444 197.58 73.3819 197.58 72.9919C197.58 72.6459 197.532 72.3175 197.436 72.0065C197.338 71.6974 197.201 71.426 197.024 71.1923C196.845 70.9586 196.631 70.7727 196.382 70.6347C196.131 70.4986 195.856 70.4305 195.555 70.4305C195.181 70.4305 194.821 70.5308 194.477 70.7313C194.134 70.9301 193.809 71.1895 193.503 71.5097ZM193.191 69.4865L193.42 70.7258C193.579 70.5731 193.754 70.4158 193.946 70.2539C194.136 70.0938 194.343 69.9456 194.568 69.8095C194.793 69.6752 195.036 69.5657 195.298 69.481C195.56 69.3945 195.839 69.3513 196.136 69.3513C196.573 69.3513 196.963 69.447 197.306 69.6384C197.651 69.8297 197.944 70.0836 198.185 70.4001C198.425 70.7166 198.609 71.08 198.739 71.4904C198.868 71.9025 198.932 72.3285 198.932 72.7683C198.932 73.3479 198.825 73.8824 198.611 74.3719C198.397 74.8613 198.108 75.2836 197.743 75.6388C197.378 75.9939 196.951 76.2699 196.462 76.4668C195.974 76.6655 195.455 76.7649 194.905 76.7649C194.68 76.7649 194.44 76.7492 194.184 76.718C193.927 76.6867 193.7 76.6434 193.503 76.5882V80.2426H192.22V69.4865H193.191ZM200.863 76.6296V69.4865H201.861L202.063 71.6284C202.122 71.5161 202.184 71.4011 202.248 71.2834C202.314 71.1638 202.38 71.0478 202.444 70.9356C202.509 70.8233 202.574 70.7175 202.638 70.6182C202.701 70.5207 202.757 70.4351 202.807 70.3615C202.904 70.2235 203.016 70.0928 203.141 69.9696C203.265 69.8463 203.399 69.7377 203.542 69.6439C203.686 69.5519 203.839 69.4801 204.002 69.4286C204.164 69.3771 204.337 69.3513 204.521 69.3513C204.652 69.3513 204.776 69.366 204.892 69.3955C205.01 69.4249 205.107 69.4737 205.182 69.5418L205.047 70.7396C204.966 70.7175 204.886 70.7028 204.809 70.6955C204.73 70.6899 204.651 70.6872 204.574 70.6872C204.255 70.6872 203.978 70.7387 203.742 70.8417C203.506 70.9448 203.294 71.0846 203.105 71.2613C202.919 71.4398 202.751 71.6477 202.599 71.8851C202.448 72.1243 202.296 72.381 202.143 72.6551V76.6296H200.863ZM206.77 76.6296V69.4865H208.05V76.6296H206.77ZM207.417 67.9381C207.305 67.9381 207.199 67.9179 207.099 67.8774C206.999 67.8369 206.914 67.7808 206.842 67.7091C206.77 67.6373 206.714 67.5527 206.673 67.4551C206.633 67.3594 206.612 67.2527 206.612 67.135C206.612 67.019 206.635 66.9086 206.681 66.8038C206.726 66.7007 206.785 66.6115 206.858 66.536C206.934 66.4587 207.022 66.3989 207.124 66.3566C207.225 66.3143 207.332 66.2931 207.445 66.2931C207.552 66.2931 207.654 66.3143 207.752 66.3566C207.848 66.3989 207.931 66.4587 208.003 66.536C208.075 66.6115 208.131 66.6998 208.172 66.801C208.213 66.9022 208.233 67.0089 208.233 67.1212C208.233 67.2426 208.211 67.3539 208.167 67.4551C208.12 67.5563 208.061 67.6419 207.987 67.7118C207.913 67.7817 207.826 67.8369 207.727 67.8774C207.629 67.9179 207.526 67.9381 207.417 67.9381ZM212.337 76.6296L209.665 69.4865H211.109L212.702 74.4326L213.001 75.6057H213.136L213.418 74.4326L215.025 69.4865H216.35L213.662 76.6296H212.337ZM221.737 75.5642C221.625 75.6599 221.489 75.7759 221.328 75.912C221.168 76.0482 220.988 76.1797 220.789 76.3067C220.588 76.4318 220.369 76.5395 220.133 76.6296C219.897 76.7198 219.647 76.7649 219.381 76.7649C219.141 76.7649 218.908 76.7235 218.681 76.6407C218.455 76.556 218.253 76.4318 218.076 76.2681C217.901 76.1043 217.76 75.901 217.655 75.6581C217.548 75.417 217.495 75.1392 217.495 74.8245C217.495 74.6313 217.519 74.4354 217.567 74.2367C217.615 74.0398 217.695 73.8502 217.807 73.6681C217.92 73.4859 218.067 73.3148 218.25 73.1547C218.432 72.9965 218.657 72.8575 218.925 72.7379C219.192 72.6183 219.508 72.5254 219.873 72.4592C220.238 72.3911 220.657 72.357 221.129 72.357H221.737V71.7388C221.737 71.5309 221.701 71.3441 221.63 71.1785C221.558 71.0129 221.457 70.8703 221.328 70.7507C221.199 70.6311 221.046 70.5391 220.869 70.4747C220.69 70.4084 220.493 70.3753 220.277 70.3753C220.115 70.3753 219.943 70.3937 219.763 70.4305C219.58 70.4655 219.398 70.517 219.215 70.5851C219.033 70.6531 218.858 70.7323 218.692 70.8224C218.525 70.9108 218.378 71.0092 218.253 71.1178L218.131 71.0515L217.86 70.0662C218.122 69.9226 218.374 69.8049 218.618 69.7129C218.861 69.6209 219.093 69.5482 219.315 69.4948C219.538 69.4396 219.751 69.4019 219.954 69.3817C220.156 69.3614 220.35 69.3513 220.534 69.3513C221.377 69.3513 222.002 69.5252 222.409 69.873C222.817 70.2226 223.021 70.7451 223.021 71.4407V74.9598C223.021 75.0168 223.024 75.0868 223.032 75.1696C223.041 75.2542 223.063 75.3342 223.098 75.4097C223.131 75.487 223.18 75.5523 223.245 75.6057C223.311 75.659 223.4 75.6857 223.513 75.6857C223.576 75.6857 223.659 75.6756 223.762 75.6553C223.865 75.6351 223.968 75.6001 224.072 75.5504V76.2653C223.856 76.4144 223.639 76.5349 223.422 76.6269C223.202 76.7189 222.991 76.7649 222.788 76.7649C222.604 76.7649 222.453 76.7281 222.335 76.6545C222.215 76.579 222.115 76.4834 222.036 76.3674C221.959 76.2497 221.897 76.1199 221.851 75.9783C221.807 75.8366 221.769 75.6986 221.737 75.5642ZM221.737 74.7031V73.1381H221.223C220.696 73.1381 220.276 73.1759 219.965 73.2513C219.651 73.3249 219.412 73.4233 219.248 73.5466C219.084 73.6699 218.976 73.8125 218.925 73.9744C218.873 74.1364 218.847 74.3047 218.847 74.4795C218.847 74.6691 218.874 74.8374 218.928 74.9846C218.981 75.1337 219.057 75.2606 219.154 75.3655C219.25 75.4722 219.366 75.5523 219.503 75.6057C219.637 75.659 219.783 75.6857 219.94 75.6857C220.061 75.6857 220.187 75.671 220.316 75.6415C220.443 75.6121 220.58 75.5606 220.728 75.487C220.874 75.4134 221.028 75.314 221.193 75.1889C221.357 75.0619 221.538 74.9 221.737 74.7031ZM226.124 74.8383V70.5105H224.68L224.788 69.8509C225.138 69.7791 225.419 69.688 225.631 69.5776C225.843 69.4672 226.018 69.3292 226.154 69.1636C226.292 68.998 226.408 68.7965 226.5 68.5592C226.592 68.3236 226.696 68.0421 226.812 67.7146H227.407V69.4865H230.001L229.73 70.5105H227.407V74.5016C227.407 74.7169 227.44 74.8991 227.506 75.0481C227.571 75.199 227.661 75.3223 227.778 75.418C227.896 75.5118 228.037 75.5799 228.203 75.6222C228.371 75.6645 228.556 75.6857 228.757 75.6857C228.965 75.6857 229.171 75.6664 229.376 75.6277C229.581 75.5909 229.775 75.5385 229.96 75.4704V76.1991C229.676 76.3831 229.378 76.5229 229.066 76.6186C228.753 76.7161 228.434 76.7649 228.109 76.7649C227.807 76.7649 227.535 76.7216 227.294 76.6352C227.05 76.5505 226.842 76.4272 226.669 76.2653C226.495 76.1034 226.362 75.9028 226.267 75.6636C226.172 75.4226 226.124 75.1475 226.124 74.8383ZM237.407 75.2965V76.0224C237.236 76.1439 237.039 76.2506 236.816 76.3426C236.592 76.4346 236.362 76.5119 236.124 76.5744C235.884 76.6388 235.645 76.6867 235.405 76.718C235.164 76.7492 234.94 76.7649 234.733 76.7649C234.274 76.7649 233.837 76.6885 233.422 76.5358C233.009 76.3831 232.647 76.1586 232.335 75.8623C232.026 75.5661 231.778 75.199 231.594 74.7611C231.408 74.3213 231.315 73.8162 231.315 73.2458C231.315 72.6588 231.413 72.1243 231.611 71.6422C231.806 71.1619 232.068 70.7525 232.396 70.4139C232.724 70.0735 233.103 69.8113 233.533 69.6273C233.964 69.4433 234.416 69.3513 234.888 69.3513C235.271 69.3513 235.628 69.4157 235.958 69.5445C236.288 69.6715 236.576 69.8638 236.821 70.1214C237.068 70.3771 237.261 70.6973 237.399 71.0819C237.539 71.4646 237.609 71.9127 237.609 72.426C237.609 72.5291 237.605 72.6524 237.595 72.7959C237.586 72.9394 237.568 73.0894 237.54 73.2458H232.653C232.653 73.6322 232.722 73.9772 232.858 74.2808C232.996 74.5844 233.19 74.8402 233.439 75.0481C233.689 75.2579 233.988 75.417 234.335 75.5256C234.681 75.6323 235.064 75.6857 235.483 75.6857C235.586 75.6857 235.712 75.6811 235.861 75.6719C236.009 75.6627 236.168 75.6452 236.34 75.6195C236.511 75.5919 236.689 75.5523 236.874 75.5008C237.058 75.4492 237.236 75.3812 237.407 75.2965ZM232.653 72.4509H236.392C236.392 72.1141 236.345 71.817 236.251 71.5594C236.157 71.2999 236.029 71.0828 235.867 70.908C235.705 70.7332 235.517 70.6007 235.303 70.5105C235.089 70.4204 234.86 70.3753 234.617 70.3753C234.348 70.3753 234.093 70.4305 233.854 70.5409C233.616 70.6513 233.408 70.8013 233.231 70.9908C233.052 71.1785 232.911 71.3984 232.808 71.6505C232.705 71.9025 232.653 72.1693 232.653 72.4509ZM248.304 75.2965V76.0224C248.132 76.1439 247.935 76.2506 247.712 76.3426C247.489 76.4346 247.259 76.5119 247.021 76.5744C246.781 76.6388 246.541 76.6867 246.302 76.718C246.06 76.7492 245.836 76.7649 245.63 76.7649C245.171 76.7649 244.734 76.6885 244.319 76.5358C243.906 76.3831 243.543 76.1586 243.232 75.8623C242.922 75.5661 242.675 75.199 242.491 74.7611C242.304 74.3213 242.211 73.8162 242.211 73.2458C242.211 72.6588 242.31 72.1243 242.507 71.6422C242.703 71.1619 242.964 70.7525 243.293 70.4139C243.621 70.0735 244 69.8113 244.429 69.6273C244.861 69.4433 245.312 69.3513 245.784 69.3513C246.166 69.3513 246.523 69.4157 246.855 69.5445C247.185 69.6715 247.472 69.8638 247.718 70.1214C247.963 70.3771 248.156 70.6973 248.296 71.0819C248.436 71.4646 248.506 71.9127 248.506 72.426C248.506 72.5291 248.501 72.6524 248.492 72.7959C248.483 72.9394 248.464 73.0894 248.437 73.2458H243.55C243.55 73.6322 243.618 73.9772 243.755 74.2808C243.893 74.5844 244.086 74.8402 244.335 75.0481C244.586 75.2579 244.885 75.417 245.231 75.5256C245.578 75.6323 245.961 75.6857 246.379 75.6857C246.482 75.6857 246.608 75.6811 246.755 75.6719C246.905 75.6627 247.065 75.6452 247.236 75.6195C247.408 75.5919 247.586 75.5523 247.77 75.5008C247.955 75.4492 248.132 75.3812 248.304 75.2965ZM243.55 72.4509H247.289C247.289 72.1141 247.242 71.817 247.148 71.5594C247.054 71.2999 246.926 71.0828 246.763 70.908C246.601 70.7332 246.413 70.6007 246.199 70.5105C245.985 70.4204 245.757 70.3753 245.513 70.3753C245.244 70.3753 244.99 70.4305 244.75 70.5409C244.512 70.6513 244.305 70.8013 244.128 70.9908C243.949 71.1785 243.808 71.3984 243.705 71.6505C243.601 71.9025 243.55 72.1693 243.55 72.4509ZM250.882 76.6296H249.557L252.259 72.9311L249.781 69.4865H251.28L252.414 71.253L252.942 72.2356H253.075L253.642 71.253L254.858 69.4865H256.18L253.622 72.8704L256.404 76.6296H254.905L253.556 74.6203L252.981 73.5825H252.845L252.273 74.5955L250.882 76.6296ZM259.212 71.5097V75.418C259.339 75.4805 259.473 75.532 259.615 75.5725C259.757 75.613 259.898 75.6452 260.038 75.6691C260.18 75.6949 260.317 75.7133 260.448 75.7243C260.579 75.7354 260.691 75.7409 260.785 75.7409C261.154 75.7409 261.493 75.671 261.803 75.5311C262.111 75.3913 262.375 75.1981 262.597 74.9515C262.816 74.7049 262.987 74.4142 263.108 74.0793C263.23 73.7444 263.291 73.3819 263.291 72.9919C263.291 72.6459 263.242 72.3175 263.144 72.0065C263.048 71.6974 262.912 71.426 262.735 71.1923C262.556 70.9586 262.342 70.7727 262.093 70.6347C261.843 70.4986 261.567 70.4305 261.266 70.4305C260.892 70.4305 260.533 70.5308 260.188 70.7313C259.843 70.9301 259.518 71.1895 259.212 71.5097ZM258.902 69.4865L259.131 70.7258C259.29 70.5731 259.464 70.4158 259.654 70.2539C259.846 70.0938 260.054 69.9456 260.279 69.8095C260.504 69.6752 260.747 69.5657 261.009 69.481C261.269 69.3945 261.548 69.3513 261.847 69.3513C262.282 69.3513 262.672 69.447 263.017 69.6384C263.362 69.8297 263.654 70.0836 263.894 70.4001C264.135 70.7166 264.321 71.08 264.45 71.4904C264.577 71.9025 264.64 72.3285 264.64 72.7683C264.64 73.3479 264.534 73.8824 264.32 74.3719C264.106 74.8613 263.817 75.2836 263.454 75.6388C263.089 75.9939 262.662 76.2699 262.174 76.4668C261.685 76.6655 261.166 76.7649 260.616 76.7649C260.392 76.7649 260.151 76.7492 259.895 76.718C259.638 76.6867 259.411 76.6434 259.212 76.5882V80.2426H257.931V69.4865H258.902ZM272.215 75.2965V76.0224C272.046 76.1439 271.849 76.2506 271.626 76.3426C271.403 76.4346 271.172 76.5119 270.932 76.5744C270.694 76.6388 270.455 76.6867 270.213 76.718C269.973 76.7492 269.749 76.7649 269.541 76.7649C269.082 76.7649 268.646 76.6885 268.233 76.5358C267.818 76.3831 267.456 76.1586 267.146 75.8623C266.835 75.5661 266.587 75.199 266.402 74.7611C266.218 74.3213 266.126 73.8162 266.126 73.2458C266.126 72.6588 266.223 72.1243 266.419 71.6422C266.616 71.1619 266.879 70.7525 267.207 70.4139C267.535 70.0735 267.914 69.8113 268.344 69.6273C268.773 69.4433 269.225 69.3513 269.699 69.3513C270.08 69.3513 270.437 69.4157 270.769 69.5445C271.099 69.6715 271.387 69.8638 271.632 70.1214C271.877 70.3771 272.07 70.6973 272.21 71.0819C272.35 71.4646 272.42 71.9127 272.42 72.426C272.42 72.5291 272.416 72.6524 272.406 72.7959C272.397 72.9394 272.379 73.0894 272.351 73.2458H267.464C267.464 73.6322 267.532 73.9772 267.669 74.2808C267.805 74.5844 267.999 74.8402 268.25 75.0481C268.498 75.2579 268.796 75.417 269.143 75.5256C269.49 75.6323 269.872 75.6857 270.291 75.6857C270.396 75.6857 270.522 75.6811 270.67 75.6719C270.819 75.6627 270.979 75.6452 271.151 75.6195C271.32 75.5919 271.497 75.5523 271.682 75.5008C271.868 75.4492 272.046 75.3812 272.215 75.2965ZM267.464 72.4509H271.203C271.203 72.1141 271.156 71.817 271.062 71.5594C270.968 71.2999 270.84 71.0828 270.678 70.908C270.516 70.7332 270.327 70.6007 270.114 70.5105C269.9 70.4204 269.671 70.3753 269.428 70.3753C269.157 70.3753 268.902 70.4305 268.664 70.5409C268.427 70.6513 268.218 70.8013 268.039 70.9908C267.862 71.1785 267.722 71.3984 267.619 71.6505C267.516 71.9025 267.464 72.1693 267.464 72.4509ZM274.417 76.6296V69.4865H275.415L275.617 71.6284C275.676 71.5161 275.739 71.4011 275.805 71.2834C275.87 71.1638 275.934 71.0478 275.999 70.9356C276.065 70.8233 276.13 70.7175 276.192 70.6182C276.255 70.5207 276.311 70.4351 276.361 70.3615C276.461 70.2235 276.572 70.0928 276.696 69.9696C276.819 69.8463 276.953 69.7377 277.097 69.6439C277.241 69.5519 277.394 69.4801 277.556 69.4286C277.718 69.3771 277.891 69.3513 278.076 69.3513C278.207 69.3513 278.33 69.366 278.446 69.3955C278.564 69.4249 278.661 69.4737 278.737 69.5418L278.604 70.7396C278.523 70.7175 278.443 70.7028 278.363 70.6955C278.284 70.6899 278.207 70.6872 278.131 70.6872C277.81 70.6872 277.532 70.7387 277.296 70.8417C277.06 70.9448 276.849 71.0846 276.663 71.2613C276.475 71.4398 276.306 71.6477 276.156 71.8851C276.005 72.1243 275.853 72.381 275.7 72.6551V76.6296H274.417ZM280.324 76.6296V69.4865H281.608V76.6296H280.324ZM280.971 67.9381C280.859 67.9381 280.754 67.9179 280.656 67.8774C280.557 67.8369 280.471 67.7808 280.399 67.7091C280.327 67.6373 280.271 67.5527 280.23 67.4551C280.19 67.3594 280.169 67.2527 280.169 67.135C280.169 67.019 280.192 66.9086 280.236 66.8038C280.282 66.7007 280.342 66.6115 280.416 66.536C280.489 66.4587 280.577 66.3989 280.678 66.3566C280.78 66.3143 280.887 66.2931 280.999 66.2931C281.108 66.2931 281.21 66.3143 281.306 66.3566C281.404 66.3989 281.489 66.4587 281.561 66.536C281.632 66.6115 281.689 66.6998 281.729 66.801C281.77 66.9022 281.79 67.0089 281.79 67.1212C281.79 67.2426 281.767 67.3539 281.721 67.4551C281.677 67.5563 281.618 67.6419 281.544 67.7118C281.468 67.7817 281.382 67.8369 281.284 67.8774C281.184 67.9179 281.08 67.9381 280.971 67.9381ZM289.647 75.2965V76.0224C289.476 76.1439 289.279 76.2506 289.058 76.3426C288.835 76.4346 288.604 76.5119 288.364 76.5744C288.126 76.6388 287.886 76.6867 287.645 76.718C287.405 76.7492 287.181 76.7649 286.973 76.7649C286.514 76.7649 286.078 76.6885 285.665 76.5358C285.25 76.3831 284.888 76.1586 284.578 75.8623C284.266 75.5661 284.018 75.199 283.834 74.7611C283.649 74.3213 283.557 73.8162 283.557 73.2458C283.557 72.6588 283.655 72.1243 283.85 71.6422C284.046 71.1619 284.309 70.7525 284.639 70.4139C284.967 70.0735 285.346 69.8113 285.775 69.6273C286.205 69.4433 286.657 69.3513 287.13 69.3513C287.512 69.3513 287.869 69.4157 288.201 69.5445C288.531 69.6715 288.818 69.8638 289.064 70.1214C289.309 70.3771 289.502 70.6973 289.642 71.0819C289.78 71.4646 289.849 71.9127 289.849 72.426C289.849 72.5291 289.845 72.6524 289.838 72.7959C289.829 72.9394 289.81 73.0894 289.783 73.2458H284.893C284.893 73.6322 284.962 73.9772 285.1 74.2808C285.237 74.5844 285.431 74.8402 285.681 75.0481C285.93 75.2579 286.228 75.417 286.575 75.5256C286.921 75.6323 287.304 75.6857 287.722 75.6857C287.827 75.6857 287.954 75.6811 288.101 75.6719C288.251 75.6627 288.41 75.6452 288.58 75.6195C288.751 75.5919 288.929 75.5523 289.113 75.5008C289.298 75.4492 289.476 75.3812 289.647 75.2965ZM284.893 72.4509H288.635C288.635 72.1141 288.588 71.817 288.494 71.5594C288.398 71.2999 288.27 71.0828 288.109 70.908C287.947 70.7332 287.759 70.6007 287.545 70.5105C287.331 70.4204 287.103 70.3753 286.859 70.3753C286.588 70.3753 286.334 70.4305 286.096 70.5409C285.858 70.6513 285.65 70.8013 285.471 70.9908C285.294 71.1785 285.154 71.3984 285.051 71.6505C284.946 71.9025 284.893 72.1693 284.893 72.4509ZM291.849 76.6296V69.4865H292.847L293.049 70.7258C293.207 70.5786 293.388 70.4241 293.591 70.2621C293.794 70.1002 294.013 69.9521 294.249 69.8178C294.485 69.6816 294.736 69.5703 295.001 69.4838C295.267 69.3955 295.539 69.3513 295.817 69.3513C296.147 69.3513 296.443 69.4148 296.705 69.5418C296.969 69.6669 297.195 69.8426 297.383 70.0689C297.569 70.2971 297.713 70.5667 297.814 70.8776C297.915 71.1904 297.966 71.5309 297.966 71.8989V76.6296H296.683V72.0203C296.683 71.759 296.646 71.529 296.572 71.3303C296.497 71.1297 296.394 70.9632 296.265 70.8307C296.134 70.6982 295.979 70.5989 295.798 70.5326C295.617 70.4645 295.422 70.4305 295.212 70.4305C294.837 70.4305 294.483 70.5289 294.15 70.7258C293.818 70.9246 293.478 71.1858 293.132 71.5097V76.6296H291.849ZM305.35 75.2965V76.0224C305.072 76.2377 304.74 76.4153 304.355 76.5551C303.971 76.695 303.552 76.7649 303.096 76.7649C302.61 76.7649 302.17 76.6802 301.777 76.511C301.383 76.3435 301.046 76.1089 300.768 75.8071C300.487 75.5072 300.273 75.1466 300.123 74.7252C299.972 74.3057 299.897 73.8466 299.897 73.3479C299.897 72.7683 299.995 72.2338 300.192 71.7443C300.392 71.2548 300.663 70.8325 301.006 70.4774C301.35 70.1223 301.757 69.8463 302.225 69.6494C302.694 69.4507 303.196 69.3513 303.732 69.3513C303.858 69.3513 303.993 69.3568 304.139 69.3679C304.287 69.3789 304.432 69.3982 304.576 69.4258C304.72 69.4534 304.859 69.4865 304.994 69.5252C305.128 69.562 305.247 69.608 305.35 69.6632L305.082 70.781L304.933 70.8473C304.842 70.781 304.74 70.7185 304.626 70.6596C304.511 70.6007 304.39 70.551 304.261 70.5105C304.133 70.4701 304.001 70.4379 303.862 70.4139C303.726 70.3882 303.592 70.3753 303.461 70.3753C303.159 70.3753 302.874 70.4351 302.607 70.5547C302.34 70.6743 302.104 70.8473 301.902 71.0736C301.699 71.2999 301.539 71.5787 301.423 71.9099C301.305 72.2393 301.246 72.6156 301.246 73.0388C301.246 73.4693 301.308 73.8484 301.431 74.1759C301.555 74.5053 301.726 74.7822 301.943 75.0067C302.159 75.2312 302.415 75.4005 302.712 75.5146C303.009 75.6287 303.331 75.6857 303.677 75.6857C303.884 75.6857 304.133 75.6599 304.427 75.6084C304.72 75.5569 305.028 75.4529 305.35 75.2965ZM312.925 75.2965V76.0224C312.756 76.1439 312.559 76.2506 312.336 76.3426C312.113 76.4346 311.883 76.5119 311.645 76.5744C311.405 76.6388 311.166 76.6867 310.926 76.718C310.684 76.7492 310.46 76.7649 310.254 76.7649C309.795 76.7649 309.358 76.6885 308.943 76.5358C308.528 76.3831 308.166 76.1586 307.856 75.8623C307.546 75.5661 307.298 75.199 307.112 74.7611C306.928 74.3213 306.836 73.8162 306.836 73.2458C306.836 72.6588 306.934 72.1243 307.131 71.6422C307.327 71.1619 307.589 70.7525 307.917 70.4139C308.245 70.0735 308.624 69.8113 309.054 69.6273C309.483 69.4433 309.935 69.3513 310.409 69.3513C310.79 69.3513 311.147 69.4157 311.479 69.5445C311.809 69.6715 312.097 69.8638 312.342 70.1214C312.587 70.3771 312.78 70.6973 312.92 71.0819C313.06 71.4646 313.13 71.9127 313.13 72.426C313.13 72.5291 313.125 72.6524 313.116 72.7959C313.107 72.9394 313.089 73.0894 313.061 73.2458H308.174C308.174 73.6322 308.242 73.9772 308.379 74.2808C308.517 74.5844 308.711 74.8402 308.96 75.0481C309.21 75.2579 309.509 75.417 309.856 75.5256C310.202 75.6323 310.585 75.6857 311.003 75.6857C311.107 75.6857 311.232 75.6811 311.379 75.6719C311.529 75.6627 311.689 75.6452 311.861 75.6195C312.03 75.5919 312.208 75.5523 312.394 75.5008C312.579 75.4492 312.756 75.3812 312.925 75.2965ZM308.174 72.4509H311.913C311.913 72.1141 311.866 71.817 311.772 71.5594C311.678 71.2999 311.55 71.0828 311.388 70.908C311.225 70.7332 311.037 70.6007 310.824 70.5105C310.61 70.4204 310.381 70.3753 310.138 70.3753C309.868 70.3753 309.614 70.4305 309.374 70.5409C309.136 70.6513 308.928 70.8013 308.749 70.9908C308.572 71.1785 308.432 71.3984 308.329 71.6505C308.226 71.9025 308.174 72.1693 308.174 72.4509Z" fill="#4E55FF"/>
</g>
</g>
</g>
</g>
<g clip-path="url(#clip10_490_395)">
<g clip-path="url(#clip11_490_395)">
<path d="M325.661 56.6859C325.661 25.3791 351.091 0 382.461 0C413.83 0 439.26 25.3791 439.26 56.6859C439.26 87.9926 413.83 113.372 382.461 113.372C351.091 113.372 325.661 87.9926 325.661 56.6859ZM382.461 110.985C412.51 110.985 436.869 86.6748 436.869 56.6859C436.869 26.697 412.51 2.38622 382.461 2.38622C352.412 2.38622 328.052 26.697 328.052 56.6859C328.052 86.6748 352.412 110.985 382.461 110.985Z" fill="#FF1F1F"/>
<g clip-path="url(#clip12_490_395)">
<g clip-path="url(#clip13_490_395)">
<path d="M364.43 65.4359H399.579C400.015 65.4359 400.369 65.0826 400.369 64.6472C400.369 64.2119 400.015 63.8585 399.579 63.8585H398.129V60.2551L399.931 62.0628C400.086 62.2173 400.289 62.2946 400.492 62.2946C400.693 62.2946 400.895 62.2181 401.05 62.0651C401.359 61.7575 401.36 61.2583 401.052 60.9492L398.129 58.0177V56.4806L399.931 58.289C400.086 58.4436 400.289 58.5209 400.492 58.5209C400.693 58.5209 400.895 58.4444 401.05 58.2914C401.359 57.9838 401.36 57.4845 401.052 57.1754L398.129 54.2439V52.7068L399.931 54.5144C400.086 54.669 400.289 54.7463 400.492 54.7463C400.693 54.7463 400.895 54.6698 401.05 54.5168C401.359 54.2092 401.36 53.71 401.052 53.4008L397.899 50.2391C397.75 50.0908 397.549 50.0072 397.339 50.0072C397.128 50.0072 396.927 50.0908 396.778 50.2391L393.625 53.4008C393.318 53.71 393.319 54.2092 393.628 54.5168C393.937 54.8236 394.437 54.8228 394.746 54.5144L396.548 52.7068V54.2439L393.625 57.1754C393.317 57.4845 393.319 57.9838 393.628 58.2914C393.938 58.5989 394.438 58.5974 394.746 58.289L396.548 56.4806V58.0177L393.625 60.9492C393.318 61.2583 393.319 61.7575 393.628 62.0651C393.937 62.3719 394.437 62.3711 394.746 62.0628L396.548 60.2551V63.8585H392.689L379.562 40.5148C379.282 40.0172 378.464 40.0172 378.184 40.5148L365.057 63.8585H364.43C363.994 63.8585 363.64 64.2119 363.64 64.6472C363.64 65.0826 363.994 65.4359 364.43 65.4359ZM378.873 42.5125L382.71 49.3361L381.962 50.2407L381.024 49.1058C380.874 48.9244 380.65 48.8187 380.415 48.8187C380.178 48.8187 379.955 48.9244 379.805 49.1058L378.871 50.2391L377.936 49.1058C377.635 48.7422 377.016 48.7422 376.716 49.1058L375.781 50.2391L375.036 49.3368L378.873 42.5125ZM374.206 50.8117L375.17 51.9805C375.47 52.344 376.09 52.344 376.39 51.9805L377.325 50.8471L378.26 51.9805C378.56 52.344 379.18 52.344 379.48 51.9805L380.416 50.8464L381.354 51.9805C381.504 52.1618 381.727 52.2675 381.963 52.2675C382.198 52.2675 382.423 52.1626 382.572 51.9805L383.539 50.8101L390.877 63.8578H366.869L374.206 50.8117Z" fill="#FF1F1F"/>
<path d="M391.206 48.9702C393.5 48.9702 395.587 47.5277 396.398 45.3817C396.507 45.0915 396.436 44.7642 396.217 44.5457C395.997 44.3265 395.669 44.2555 395.379 44.3651C394.924 44.5363 394.454 44.6238 393.98 44.6238C391.79 44.6238 390.008 42.8462 390.008 40.66C390.008 40.1884 390.095 39.7191 390.268 39.2641C390.377 38.9738 390.306 38.6473 390.087 38.4281C389.867 38.2096 389.538 38.1378 389.249 38.2475C387.099 39.0566 385.653 41.1387 385.653 43.4282C385.654 46.4843 388.145 48.9702 391.206 48.9702ZM388.429 40.604C388.429 40.6221 388.429 40.6411 388.429 40.6592C388.429 43.7326 390.935 46.2366 394.037 46.1996C393.304 46.9441 392.287 47.392 391.207 47.392C389.017 47.392 387.235 45.6144 387.235 43.4282C387.235 42.3509 387.683 41.3367 388.429 40.604Z" fill="#FF1F1F"/>
<path d="M379.625 87.0847C380.382 87.8411 381.389 88.2575 382.461 88.2575C383.532 88.2575 384.539 87.8411 385.297 87.0847L412.921 59.5161C413.679 58.7606 414.096 57.7551 414.096 56.6856C414.096 55.6162 413.679 54.6114 412.921 53.8551L385.297 26.2865C384.54 25.5302 383.532 25.1138 382.461 25.1138C381.389 25.1138 380.383 25.5302 379.625 26.2865L352.001 53.8551C351.243 54.6114 350.826 55.617 350.826 56.6856C350.826 57.7543 351.243 58.7598 352.001 59.5161L379.625 87.0847ZM353.118 54.9703L380.742 27.4017C381.216 26.9285 381.838 26.6927 382.461 26.6927C383.084 26.6927 383.706 26.9293 384.18 27.4017L411.804 54.9703C412.751 55.9159 412.751 57.4546 411.804 58.401L384.18 85.9696C383.232 86.9152 381.69 86.9152 380.742 85.9696L353.118 58.401C352.171 57.4554 352.171 55.9159 353.118 54.9703Z" fill="#FF1F1F"/>
</g>
</g>
</g>
</g>
</g>
</g>
</g>
</g>
<defs>
<clipPath id="clip0_490_395">
<rect width="440" height="113" fill="white"/>
</clipPath>
<clipPath id="clip1_490_395">
<rect width="440" height="113" fill="white" transform="translate(-0.266602 0.186035)"/>
</clipPath>
<clipPath id="clip2_490_395">
<rect width="439.053" height="113.372" fill="white" transform="translate(0.207031)"/>
</clipPath>
<clipPath id="clip3_490_395">
<rect width="439.053" height="113.372" fill="white" transform="translate(0.207031)"/>
</clipPath>
<clipPath id="clip4_490_395">
<rect width="312.936" height="47.1135" fill="white" transform="translate(0.207031 33.1289)"/>
</clipPath>
<clipPath id="clip5_490_395">
<rect width="312.936" height="47.1135" fill="white" transform="translate(0.207031 33.1289)"/>
</clipPath>
<clipPath id="clip6_490_395">
<rect width="312.936" height="26.4594" fill="white" transform="translate(0.207031 33.1289)"/>
</clipPath>
<clipPath id="clip7_490_395">
<rect width="312.936" height="26.4594" fill="white" transform="translate(0.207031 33.1289)"/>
</clipPath>
<clipPath id="clip8_490_395">
<rect width="183.725" height="14.4076" fill="white" transform="translate(129.418 65.835)"/>
</clipPath>
<clipPath id="clip9_490_395">
<rect width="183.725" height="14.4076" fill="white" transform="translate(129.418 65.835)"/>
</clipPath>
<clipPath id="clip10_490_395">
<rect width="113.599" height="113.372" fill="white" transform="translate(325.661)"/>
</clipPath>
<clipPath id="clip11_490_395">
<rect width="113.599" height="113.372" fill="white" transform="translate(325.661)"/>
</clipPath>
<clipPath id="clip12_490_395">
<rect width="63.2704" height="63.1437" fill="white" transform="translate(350.826 25.1138)"/>
</clipPath>
<clipPath id="clip13_490_395">
<rect width="63.2704" height="63.1437" fill="white" transform="translate(350.826 25.1138)"/>
</clipPath>
</defs>
</svg>
