<?xml version="1.0" encoding="UTF-8" standalone="no"?>
<!DOCTYPE svg PUBLIC "-//W3C//DTD SVG 1.1//EN" "http://www.w3.org/Graphics/SVG/1.1/DTD/svg11.dtd">
<svg xmlns="http://www.w3.org/2000/svg" version="1.1" viewBox="0.00 0.00 35.00 35.00">
<path fill="#fa1f1e" fill-opacity="0.996" d="
  M 23.05 24.97
  C 14.18 31.94 0.86 25.74 1.46 14.11
  C 2.18 0.07 20.94 -3.35 26.80 9.31
  C 29.04 14.16 27.94 18.84 24.98 23.12
  Q 24.62 23.65 25.07 24.10
  L 33.59 32.63
  A 0.41 0.41 0.0 0 1 33.53 33.26
  L 33.26 33.44
  Q 32.76 33.77 32.34 33.35
  L 24.07 25.03
  Q 23.59 24.54 23.05 24.97
  Z
  M 6.00 22.40
  L 22.42 5.98
  A 0.12 0.12 0.0 0 0 22.42 5.81
  L 22.37 5.76
  A 11.55 10.93 -45.0 0 0 6.48 6.20
  L 6.22 6.46
  A 11.55 10.93 -45.0 0 0 5.78 22.35
  L 5.83 22.40
  A 0.12 0.12 0.0 0 0 6.00 22.40
  Z
  M 23.37 7.01
  L 7.01 23.37
  A 0.13 0.13 0.0 0 0 7.01 23.56
  L 7.06 23.61
  A 11.53 10.94 -45.0 0 0 22.95 23.19
  L 23.19 22.95
  A 11.53 10.94 -45.0 0 0 23.61 7.06
  L 23.56 7.01
  A 0.13 0.13 0.0 0 0 23.37 7.01
  Z"
/>
<path fill="#fa1f1e" fill-opacity="0.996" d="
  M 16.27 7.79
  Q 17.03 7.85 17.64 8.33
  Q 18.29 8.84 17.62 9.33
  Q 16.81 9.91 15.85 9.31
  Q 15.33 8.99 14.72 8.98
  Q 12.16 8.97 11.87 11.38
  Q 11.80 11.99 12.22 12.45
  L 13.07 13.36
  Q 13.72 14.06 12.81 14.31
  L 12.22 14.47
  Q 11.40 14.69 10.94 13.97
  C 9.50 11.72 10.14 8.18 13.15 7.71
  A 0.83 0.82 -1.4 0 0 13.84 6.99
  L 13.92 6.19
  Q 13.98 5.64 14.54 5.63
  L 15.04 5.62
  A 0.43 0.43 0.0 0 1 15.48 6.03
  L 15.51 6.99
  Q 15.54 7.73 16.27 7.79
  Z"
/>
<path fill="#fa1f1e" fill-opacity="0.996" d="
  M 15.47 22.73
  L 15.42 23.34
  Q 15.39 23.83 14.90 23.80
  L 14.50 23.78
  Q 13.97 23.75 13.98 23.23
  Q 14.02 21.86 12.51 21.76
  A 1.22 1.15 60.7 0 1 12.00 21.60
  Q 10.66 20.83 11.70 20.06
  A 0.81 0.80 41.5 0 1 12.60 20.01
  Q 14.28 21.03 16.27 20.45
  C 18.24 19.87 18.50 17.21 16.71 16.26
  Q 15.71 15.72 16.64 15.07
  L 16.86 14.92
  A 1.10 1.09 49.3 0 1 18.24 15.03
  C 20.67 17.36 19.72 21.64 16.15 22.03
  A 0.77 0.76 -0.9 0 0 15.47 22.73
  Z"
/>
</svg>
