<?xml version="1.0" encoding="UTF-8" standalone="no"?>
<!DOCTYPE svg PUBLIC "-//W3C//DTD SVG 1.1//EN" "http://www.w3.org/Graphics/SVG/1.1/DTD/svg11.dtd">
<svg xmlns="http://www.w3.org/2000/svg" version="1.1" viewBox="0.00 0.00 35.00 35.00">
<path fill="#f4221f" fill-opacity="0.996" d="
  M 19.52 1.43
  L 31.34 1.43
  A 2.22 2.22 0.0 0 1 33.56 3.63
  L 33.67 15.49
  A 2.22 2.22 0.0 0 1 33.02 17.08
  L 17.21 32.90
  A 2.22 2.22 0.0 0 1 14.07 32.90
  L 2.17 21.00
  A 2.22 2.22 0.0 0 1 2.17 17.86
  L 17.95 2.08
  A 2.22 2.22 0.0 0 1 19.52 1.43
  Z
  M 19.53 2.75
  A 0.72 0.72 0.0 0 0 19.02 2.96
  L 3.04 18.92
  A 0.72 0.72 0.0 0 0 3.04 19.94
  L 15.13 32.00
  A 0.72 0.72 0.0 0 0 16.15 32.00
  L 32.07 16.07
  A 0.72 0.72 0.0 0 0 32.28 15.56
  L 32.24 3.47
  A 0.72 0.72 0.0 0 0 31.52 2.75
  L 19.53 2.75
  Z"
/>
<path fill="#f4221f" fill-opacity="0.996" d="
  M 30.07 7.69
  A 2.77 2.77 0.0 0 1 27.30 10.46
  A 2.77 2.77 0.0 0 1 24.53 7.69
  A 2.77 2.77 0.0 0 1 27.30 4.92
  A 2.77 2.77 0.0 0 1 30.07 7.69
  Z
  M 28.73 7.70
  A 1.42 1.42 0.0 0 0 27.31 6.28
  A 1.42 1.42 0.0 0 0 25.89 7.70
  A 1.42 1.42 0.0 0 0 27.31 9.12
  A 1.42 1.42 0.0 0 0 28.73 7.70
  Z"
/>
<path fill="#f4221f" fill-opacity="0.996" d="
  M 12.37 21.34
  Q 11.01 19.27 12.70 17.07
  Q 12.96 16.72 13.35 16.91
  Q 13.57 17.01 13.64 17.25
  Q 13.70 17.50 13.60 17.74
  Q 12.31 20.70 15.20 22.27
  C 16.23 22.82 17.41 22.16 17.91 21.20
  A 1.78 1.77 41.7 0 0 17.80 19.38
  Q 16.47 17.44 15.91 15.48
  A 1.44 1.42 52.8 0 1 16.06 14.35
  Q 17.92 11.22 21.07 12.79
  Q 21.56 13.03 21.95 12.66
  L 22.47 12.17
  A 0.48 0.47 48.3 0 1 23.15 12.21
  Q 23.38 12.48 23.28 12.84
  Q 23.15 13.36 22.71 13.69
  Q 22.38 13.94 22.60 14.29
  Q 23.66 15.98 22.63 17.99
  A 0.47 0.46 9.0 0 1 22.26 18.25
  Q 21.76 18.31 21.57 17.81
  A 0.57 0.57 0.0 0 1 21.57 17.45
  Q 22.48 14.69 20.02 13.83
  A 1.85 1.84 86.1 0 0 17.77 16.42
  L 19.32 19.46
  A 2.61 2.61 0.0 0 1 19.20 22.05
  Q 17.43 24.82 14.04 23.30
  Q 13.27 22.95 12.65 23.52
  Q 12.21 23.92 11.97 23.37
  Q 11.91 23.23 11.86 23.08
  Q 11.79 22.81 11.98 22.60
  L 12.29 22.25
  Q 12.68 21.83 12.37 21.34
  Z"
/>
</svg>
