<?xml version="1.0" encoding="UTF-8" standalone="no"?>
<!DOCTYPE svg PUBLIC "-//W3C//DTD SVG 1.1//EN" "http://www.w3.org/Graphics/SVG/1.1/DTD/svg11.dtd">
<svg xmlns="http://www.w3.org/2000/svg" version="1.1" viewBox="0.00 0.00 35.00 35.00">
<path fill="#fa1f1c" fill-opacity="0.996" d="
  M 16.59 0.00
  L 18.57 0.00
  Q 25.33 3.71 32.51 5.65
  A 0.44 0.42 -83.2 0 1 32.83 6.07
  C 32.92 17.57 27.89 28.65 18.04 34.56
  A 1.05 1.04 -46.3 0 1 16.99 34.59
  C 6.96 29.13 2.06 17.61 2.18 6.20
  Q 2.18 5.66 2.70 5.51
  C 4.73 4.91 6.79 4.51 8.72 3.63
  Q 12.68 1.83 16.59 0.00
  Z
  M 3.86 11.03
  C 4.76 19.77 9.25 28.49 16.90 32.98
  Q 17.49 33.33 18.06 32.96
  C 26.73 27.40 31.14 17.75 31.45 7.22
  Q 31.47 6.64 30.91 6.50
  Q 25.06 5.05 19.58 1.96
  C 18.59 1.41 17.01 1.15 15.98 1.71
  Q 9.99 5.01 4.02 6.58
  Q 3.45 6.73 3.50 7.32
  Q 3.66 9.12 3.86 11.03
  Z"
/>
<path fill="#fa1f1c" fill-opacity="0.996" d="
  M 17.02 19.35
  L 22.80 10.40
  A 0.29 0.29 0.0 0 1 23.25 10.36
  L 23.83 10.93
  A 0.29 0.29 0.0 0 1 23.86 11.30
  L 17.27 21.51
  A 0.29 0.29 0.0 0 1 16.83 21.57
  L 11.78 16.96
  A 0.29 0.29 0.0 0 1 11.74 16.58
  L 12.13 15.99
  A 0.29 0.29 0.0 0 1 12.56 15.93
  L 16.59 19.41
  A 0.29 0.29 0.0 0 0 17.02 19.35
  Z"
/>
</svg>
